<svg width="600" height="400" viewBox="0 0 600 400" fill="none" xmlns="http://www.w3.org/2000/svg">
    <style>
        .screen { fill: #2a2a2a; }
        .screen-content { fill: #1a1a1a; }
        .code-line { fill: #ff4d4d; }
        .code-comment { fill: #6c757d; }
        .device { fill: #343a40; }
        .device-detail { fill: #495057; }
        .device-screen { fill: #212529; }
        .device-button { fill: #6c757d; }
        .device-camera { fill: #6c757d; }
        .device-speaker { fill: #6c757d; }
        .device-port { fill: #6c757d; }
        .shadow { fill: rgba(0,0,0,0.2); }
    </style>

    <!-- Desktop -->
    <rect class="shadow" x="50" y="320" width="300" height="10" rx="5" opacity="0.3" />
    <rect class="device" x="70" y="100" width="260" height="220" rx="5" />
    <rect class="screen" x="80" y="110" width="240" height="180" rx="2" />
    <rect class="screen-content" x="90" y="120" width="220" height="160" rx="2" />

    <!-- Code on screen -->
    <rect class="code-line" x="100" y="130" width="120" height="4" rx="2" />
    <rect class="code-comment" x="100" y="140" width="180" height="4" rx="2" />
    <rect class="code-line" x="100" y="155" width="140" height="4" rx="2" />
    <rect class="code-line" x="110" y="165" width="160" height="4" rx="2" />
    <rect class="code-line" x="110" y="175" width="130" height="4" rx="2" />
    <rect class="code-line" x="100" y="190" width="150" height="4" rx="2" />
    <rect class="code-comment" x="100" y="205" width="170" height="4" rx="2" />
    <rect class="code-line" x="100" y="220" width="160" height="4" rx="2" />
    <rect class="code-line" x="110" y="230" width="140" height="4" rx="2" />
    <rect class="code-line" x="110" y="240" width="120" height="4" rx="2" />
    <rect class="code-line" x="100" y="255" width="130" height="4" rx="2" />

    <!-- Stand -->
    <path class="device-detail" d="M170 320 L200 320 L210 300 L160 300 Z" />

    <!-- Mobile Device -->
    <rect class="shadow" x="400" y="330" width="80" height="5" rx="2.5" opacity="0.3" />
    <rect class="device" x="390" y="150" width="100" height="180" rx="10" />
    <rect class="device-screen" x="395" y="160" width="90" height="150" rx="5" />

    <!-- Mobile UI -->
    <rect class="code-line" x="405" y="170" width="70" height="6" rx="3" />
    <rect class="code-comment" x="405" y="185" width="50" height="6" rx="3" />
    <rect class="code-line" x="405" y="200" width="70" height="40" rx="5" />
    <rect class="code-line" x="405" y="250" width="70" height="40" rx="5" />

    <!-- Device Details -->
    <circle class="device-camera" cx="440" cy="155" r="2" />
    <rect class="device-speaker" x="430" y="155" width="20" height="2" rx="1" />
    <circle class="device-button" cx="440" cy="320" r="5" />

    <!-- Connecting Lines -->
    <path stroke="#ff4d4d" stroke-width="2" stroke-dasharray="5,5" d="M320 180 C350 180, 370 200, 390 200" />
    <path stroke="#ff4d4d" stroke-width="2" stroke-dasharray="5,5" d="M320 220 C350 220, 370 240, 390 240" />
</svg>

